{
  "accessors": [
    {
      "bufferView": 2,
      "componentType": 5126,
      "count": 5842,
      "max": [
        0.23772494494915009,
        5.718886375427246,
        0.48796868324279785
      ],
      "min": [
        -0.4485892653465271,
        -3.616553783416748,
        -1.3675658702850342
      ],
      "type": "VEC3"
    },
    {
      "bufferView": 2,
      "byteOffset": 70104,
      "componentType": 5126,
      "count": 5842,
      "max": [
        1.0,
        1.0,
        1.0
      ],
      "min": [
        -1.0,
        -1.0,
        -1.0
      ],
      "type": "VEC3"
    },
    {
      "bufferView": 1,
      "componentType": 5126,
      "count": 5842,
      "max": [
        1.8598438501358032,
        1.0001280307769775
      ],
      "min": [
        -0.8598438501358032,
        0.004914000164717436
      ],
      "type": "VEC2"
    },
    {
      "bufferView": 0,
      "componentType": 5125,
      "count": 8748,
      "type": "SCALAR"
    },
    {
      "bufferView": 2,
      "byteOffset": 140208,
      "componentType": 5126,
      "count": 6115,
      "max": [
        0.07568216323852539,
        6.105818748474121,
        0.7658525705337524
      ],
      "min": [
        -0.056145280599594116,
        -5.836300849914551,
        -0.20726275444030762
      ],
      "type": "VEC3"
    },
    {
      "bufferView": 2,
      "byteOffset": 213588,
      "componentType": 5126,
      "count": 6115,
      "max": [
        1.0,
        1.0,
        1.0
      ],
      "min": [
        -1.0,
        -1.0,
        -1.0
      ],
      "type": "VEC3"
    },
    {
      "bufferView": 1,
      "byteOffset": 46736,
      "componentType": 5126,
      "count": 6115,
      "max": [
        0.9953190088272095,
        0.7272725701332092
      ],
      "min": [
        0.0012799999676644802,
        0.0005144963506609201
      ],
      "type": "VEC2"
    },
    {
      "bufferView": 0,
      "byteOffset": 34992,
      "componentType": 5125,
      "count": 7554,
      "type": "SCALAR"
    },
    {
      "bufferView": 2,
      "byteOffset": 286968,
      "componentType": 5126,
      "count": 5064,
      "max": [
        0.060649171471595764,
        19.183677673339844,
        0.1844627410173416
      ],
      "min": [
        -0.06065112352371216,
        -12.349140167236328,
        -0.18446435034275055
      ],
      "type": "VEC3"
    },
    {
      "bufferView": 2,
      "byteOffset": 347736,
      "componentType": 5126,
      "count": 5064,
      "max": [
        0.9999727606773376,
        1.0,
        0.9905834197998047
      ],
      "min": [
        -0.9999736547470093,
        -1.0,
        -0.9975796937942505
      ],
      "type": "VEC3"
    },
    {
      "bufferView": 1,
      "byteOffset": 95656,
      "componentType": 5126,
      "count": 5064,
      "max": [
        0.9563955068588257,
        1.0088450908660889
      ],
      "min": [
        0.01577766425907612,
        -0.14690981805324554
      ],
      "type": "VEC2"
    },
    {
      "bufferView": 0,
      "byteOffset": 65208,
      "componentType": 5125,
      "count": 7758,
      "type": "SCALAR"
    }
  ],
  "asset": {
    "extras": {
      "author": "novusod (https://sketchfab.com/novusod)",
      "license": "CC-BY-4.0 (http://creativecommons.org/licenses/by/4.0/)",
      "source": "https://sketchfab.com/3d-models/mirco-cement-works-d46fb0ee45bb4cf5837ffa320e0dc397",
      "title": "Mirco Cement Works"
    },
    "generator": "Sketchfab-15.38.0",
    "version": "2.0"
  },
  "bufferViews": [
    {
      "buffer": 0,
      "byteLength": 96240,
      "name": "floatBufferViews",
      "target": 34963
    },
    {
      "buffer": 0,
      "byteLength": 136168,
      "byteOffset": 96240,
      "byteStride": 8,
      "name": "floatBufferViews",
      "target": 34962
    },
    {
      "buffer": 0,
      "byteLength": 408504,
      "byteOffset": 232408,
      "byteStride": 12,
      "name": "floatBufferViews",
      "target": 34962
    }
  ],
  "buffers": [
    {
      "byteLength": 640912,
      "uri": "scene.bin"
    }
  ],
  "images": [
    {
      "uri": "textures/Material_baseColor.png"
    }
  ],
  "materials": [
    {
      "doubleSided": true,
      "name": "Material",
      "pbrMetallicRoughness": {
        "baseColorTexture": {
          "index": 0
        },
        "metallicFactor": 0.0,
        "roughnessFactor": 0.4
      }
    }
  ],
  "meshes": [
    {
      "name": "Object_0",
      "primitives": [
        {
          "attributes": {
            "NORMAL": 1,
            "POSITION": 0,
            "TEXCOORD_0": 2
          },
          "indices": 3,
          "material": 0,
          "mode": 4
        }
      ]
    },
    {
      "name": "Object_1",
      "primitives": [
        {
          "attributes": {
            "NORMAL": 5,
            "POSITION": 4,
            "TEXCOORD_0": 6
          },
          "indices": 7,
          "material": 0,
          "mode": 4
        }
      ]
    },
    {
      "name": "Object_2",
      "primitives": [
        {
          "attributes": {
            "NORMAL": 9,
            "POSITION": 8,
            "TEXCOORD_0": 10
          },
          "indices": 11,
          "material": 0,
          "mode": 4
        }
      ]
    }
  ],
  "nodes": [
    {
      "children": [
        1
      ],
      "matrix": [
        1.0,
        0.0,
        0.0,
        0.0,
        0.0,
        2.220446049250313e-16,
        -1.0,
        0.0,
        0.0,
        1.0,
        2.220446049250313e-16,
        0.0,
        0.0,
        0.0,
        0.0,
        1.0
      ],
      "name": "Sketchfab_model"
    },
    {
      "children": [
        2
      ],
      "name": "root"
    },
    {
      "children": [
        3,
        5,
        7
      ],
      "matrix": [
        1.0,
        0.0,
        0.0,
        0.0,
        0.0,
        2.220446049250313e-16,
        1.0,
        0.0,
        0.0,
        -1.0,
        2.220446049250313e-16,
        0.0,
        0.0,
        0.0,
        0.0,
        1.0
      ],
      "name": "GLTF_SceneRootNode"
    },
    {
      "children": [
        4
      ],
      "matrix": [
        29.684043884277344,
        0.0,
        0.0,
        0.0,
        0.0,
        1.0,
        0.0,
        0.0,
        0.0,
        0.0,
        9.759875297546387,
        0.0,
        0.07758259773254395,
        1.9455854892730713,
        -0.15524429082870483,
        1.0
      ],
      "name": "Cube_0"
    },
    {
      "mesh": 0,
      "name": "Object_4"
    },
    {
      "children": [
        6
      ],
      "matrix": [
        29.684043884277344,
        0.0,
        0.0,
        0.0,
        0.0,
        1.0,
        0.0,
        0.0,
        0.0,
        0.0,
        9.759875297546387,
        0.0,
        -9.629667282104492,
        5.874105930328369,
        -7.2858381271362305,
        1.0
      ],
      "name": "Cube.001_1"
    },
    {
      "mesh": 1,
      "name": "Object_6"
    },
    {
      "children": [
        8
      ],
      "matrix": [
        29.684043884277344,
        0.0,
        0.0,
        0.0,
        0.0,
        1.0,
        0.0,
        0.0,
        0.0,
        0.0,
        9.759875297546387,
        0.0,
        -8.936952590942383,
        10.970837593078613,
        -2.133979082107544,
        1.0
      ],
      "name": "Cube.002_2"
    },
    {
      "mesh": 2,
      "name": "Object_8"
    }
  ],
  "samplers": [
    {
      "magFilter": 9729,
      "minFilter": 9987,
      "wrapS": 10497,
      "wrapT": 10497
    }
  ],
  "scene": 0,
  "scenes": [
    {
      "name": "Sketchfab_Scene",
      "nodes": [
        0
      ]
    }
  ],
  "textures": [
    {
      "sampler": 0,
      "source": 0
    }
  ]
}
